<svg 
 xmlns="http://www.w3.org/2000/svg"
 xmlns:xlink="http://www.w3.org/1999/xlink"
 width="30px" height="37px">
<path fill-rule="evenodd"  fill="rgb(29, 115, 233)"
 d="M29.212,35.205 C23.349,37.581 6.643,37.581 0.782,35.205 C0.309,35.012 -0.067,34.336 0.015,32.525 C0.134,29.907 0.284,25.755 2.549,22.359 C2.549,22.359 3.195,21.469 4.727,20.878 C4.727,20.878 8.056,19.855 9.586,18.748 C9.586,18.748 10.297,19.269 10.287,19.231 C10.288,19.247 10.210,23.825 10.210,23.825 C10.210,23.825 14.410,35.152 14.410,35.152 C14.502,35.401 14.737,35.564 14.999,35.564 C15.260,35.564 15.494,35.401 15.587,35.152 C15.587,35.152 19.788,23.825 19.788,23.825 C19.788,23.825 19.710,19.231 19.710,19.231 C19.710,19.231 20.409,18.748 20.409,18.748 C21.942,19.855 25.270,20.878 25.270,20.878 C26.803,21.469 27.448,22.359 27.448,22.359 C29.713,25.755 29.861,29.907 29.980,32.525 C30.061,34.336 29.687,35.012 29.212,35.205 ZM14.959,21.188 C14.959,21.188 15.148,21.183 15.148,21.183 C15.746,21.160 16.311,21.054 16.847,20.895 C16.847,20.895 15.206,23.430 15.206,23.430 C15.206,23.430 16.702,24.886 16.702,24.886 C16.702,24.886 15.164,34.318 15.164,34.318 C15.150,34.400 15.080,34.459 15.000,34.459 C14.918,34.459 14.849,34.400 14.836,34.318 C14.836,34.318 13.298,24.886 13.298,24.886 C13.298,24.886 14.792,23.430 14.792,23.430 C14.792,23.430 13.127,20.856 13.127,20.856 C13.732,21.068 14.348,21.188 14.959,21.188 ZM22.024,9.207 C22.431,9.752 22.272,10.783 22.126,11.467 C21.994,12.062 21.775,12.569 21.548,12.806 C20.997,15.786 18.548,19.548 15.092,19.719 C12.375,19.855 8.992,16.612 8.450,12.806 C8.223,12.567 8.028,12.185 7.901,11.593 C7.752,10.909 7.487,9.750 7.895,9.207 C7.953,9.126 8.022,9.061 8.098,9.009 C7.313,6.144 7.962,4.635 8.062,4.397 C9.452,1.037 12.467,-0.983 16.737,0.458 C18.182,0.946 19.782,1.564 20.933,2.795 C23.059,5.067 22.206,7.593 21.817,9.009 C21.844,9.034 21.999,9.178 22.024,9.207 Z"/>
</svg>