<svg 
 xmlns="http://www.w3.org/2000/svg"
 xmlns:xlink="http://www.w3.org/1999/xlink"
 width="30px" height="36px">
<path fill-rule="evenodd"  fill="rgb(255, 255, 255)"
 d="M27.132,7.486 C29.132,4.612 29.924,1.761 29.957,1.642 C30.048,1.307 29.990,0.948 29.796,0.662 C29.603,0.376 29.296,0.193 28.958,0.162 C27.775,0.054 26.645,-0.000 25.600,-0.000 C20.338,-0.000 16.783,1.374 15.033,4.085 C13.207,6.915 13.947,10.282 14.518,11.973 C14.517,11.975 14.516,11.976 14.515,11.978 C14.164,11.685 13.794,11.457 13.448,11.289 C12.983,8.714 11.342,6.099 7.927,6.099 C5.864,6.099 3.327,7.064 0.385,8.968 C0.177,9.102 0.038,9.325 0.007,9.574 C-0.025,9.824 0.053,10.075 0.220,10.259 C0.371,10.426 3.969,14.338 8.687,14.338 C9.857,14.338 10.998,14.095 12.090,13.613 C12.377,13.718 13.201,14.084 13.441,14.889 C13.227,15.846 13.093,16.900 13.043,18.017 C13.043,18.017 2.618,18.017 2.618,18.017 C1.909,18.017 1.334,18.606 1.334,19.332 C1.334,19.332 1.334,20.703 1.334,20.703 C1.334,21.428 1.909,22.017 2.618,22.017 C2.618,22.017 3.493,22.017 3.493,22.017 C3.493,22.017 5.329,34.876 5.329,34.876 C5.421,35.521 5.962,36.000 6.599,36.000 C6.599,36.000 23.084,36.000 23.084,36.000 C23.722,36.000 24.263,35.521 24.355,34.876 C24.355,34.876 26.190,22.017 26.190,22.017 C26.190,22.017 27.065,22.017 27.065,22.017 C27.774,22.017 28.349,21.428 28.349,20.703 C28.349,20.703 28.349,19.332 28.349,19.332 C28.349,18.606 27.774,18.017 27.065,18.017 C27.065,18.017 15.657,18.017 15.657,18.017 C15.755,16.045 16.152,14.455 16.700,13.456 C20.831,13.419 24.437,11.358 27.132,7.486 ZM2.192,9.827 C4.461,8.476 6.387,7.793 7.927,7.793 C10.053,7.793 11.050,9.160 11.519,10.450 C11.451,10.411 11.382,10.372 11.309,10.332 C10.617,9.948 9.650,9.524 8.638,9.292 C8.387,9.232 8.132,9.187 7.881,9.150 C7.756,9.132 7.631,9.120 7.508,9.105 C7.385,9.096 7.263,9.088 7.143,9.079 C7.024,9.076 6.906,9.074 6.791,9.071 C6.676,9.074 6.564,9.076 6.455,9.079 C6.236,9.093 6.032,9.109 5.845,9.136 C5.751,9.147 5.662,9.162 5.577,9.179 C5.493,9.195 5.413,9.208 5.339,9.224 C5.190,9.261 5.061,9.289 4.956,9.319 C4.749,9.382 4.630,9.419 4.630,9.419 C4.630,9.419 4.753,9.408 4.968,9.391 C5.075,9.384 5.206,9.384 5.355,9.379 C5.429,9.380 5.509,9.384 5.592,9.386 C5.675,9.387 5.762,9.391 5.853,9.401 C6.034,9.413 6.229,9.440 6.433,9.471 C6.535,9.491 6.639,9.511 6.745,9.531 C6.850,9.557 6.958,9.583 7.067,9.609 C7.174,9.641 7.283,9.673 7.394,9.705 C7.503,9.743 7.613,9.778 7.723,9.819 C7.942,9.902 8.161,9.992 8.375,10.095 C9.233,10.498 10.003,11.057 10.530,11.518 C10.795,11.747 11.002,11.951 11.138,12.094 C11.160,12.117 11.179,12.137 11.197,12.156 C10.384,12.480 9.544,12.645 8.688,12.645 C5.842,12.645 3.380,10.861 2.192,9.827 ZM16.941,5.374 C18.240,3.360 21.154,2.338 25.600,2.338 C26.134,2.338 26.692,2.354 27.271,2.384 C26.221,4.990 23.362,10.450 17.651,11.062 C17.661,11.026 17.672,10.989 17.684,10.948 C17.764,10.684 17.891,10.300 18.075,9.847 C18.165,9.620 18.273,9.378 18.391,9.122 C18.512,8.869 18.643,8.600 18.793,8.332 C18.940,8.060 19.104,7.787 19.278,7.514 C19.368,7.379 19.455,7.239 19.552,7.107 C19.552,7.107 19.694,6.905 19.694,6.905 C19.694,6.905 19.843,6.708 19.843,6.708 C20.041,6.443 20.255,6.192 20.473,5.948 C20.582,5.827 20.697,5.712 20.807,5.595 C20.923,5.484 21.037,5.374 21.149,5.266 C21.267,5.163 21.383,5.062 21.496,4.963 C21.614,4.869 21.729,4.777 21.842,4.688 C21.959,4.603 22.072,4.521 22.182,4.442 C22.293,4.362 22.406,4.296 22.511,4.226 C22.565,4.192 22.617,4.158 22.668,4.126 C22.721,4.097 22.772,4.067 22.823,4.039 C22.923,3.982 23.018,3.926 23.109,3.878 C23.294,3.787 23.455,3.703 23.591,3.642 C23.866,3.525 24.023,3.457 24.023,3.457 C24.023,3.457 23.855,3.490 23.561,3.546 C23.414,3.577 23.238,3.626 23.033,3.676 C22.932,3.705 22.825,3.740 22.712,3.775 C22.655,3.793 22.597,3.811 22.537,3.830 C22.478,3.850 22.419,3.874 22.358,3.896 C22.236,3.944 22.105,3.986 21.976,4.044 C21.846,4.101 21.712,4.159 21.573,4.220 C21.437,4.287 21.298,4.357 21.155,4.427 C21.016,4.505 20.873,4.584 20.728,4.665 C20.586,4.753 20.442,4.842 20.296,4.933 C20.155,5.030 20.008,5.125 19.865,5.229 C19.581,5.436 19.295,5.656 19.024,5.893 C18.748,6.126 18.488,6.376 18.235,6.628 C17.984,6.883 17.744,7.141 17.523,7.401 C17.298,7.659 17.094,7.920 16.903,8.170 C16.714,8.422 16.540,8.664 16.386,8.895 C16.326,8.984 16.269,9.071 16.214,9.157 C16.070,7.839 16.231,6.474 16.941,5.374 Z"/>
</svg>