<svg 
 xmlns="http://www.w3.org/2000/svg"
 xmlns:xlink="http://www.w3.org/1999/xlink"
 width="34px" height="34px">
<path fill-rule="evenodd"  fill="rgb(255, 255, 255)"
 d="M21.780,28.623 C22.000,26.677 21.566,25.161 20.477,24.073 C20.477,24.073 28.918,15.632 28.918,15.632 C29.490,16.203 30.193,16.489 31.028,16.489 C31.864,16.489 32.568,16.203 33.139,15.632 C33.711,15.060 33.996,14.357 33.996,13.522 C33.996,12.686 33.710,11.983 33.139,11.411 C33.139,11.411 22.588,0.860 22.588,0.860 C22.016,0.289 21.313,0.003 20.478,0.003 C19.642,0.003 18.939,0.289 18.367,0.860 C17.796,1.432 17.510,2.135 17.510,2.971 C17.510,3.806 17.796,4.509 18.367,5.081 C18.367,5.081 9.926,13.522 9.926,13.522 C8.838,12.434 7.322,12.000 5.376,12.219 C3.431,12.439 1.783,13.225 0.430,14.577 C0.145,14.863 0.002,15.215 0.002,15.632 C0.002,16.050 0.145,16.401 0.431,16.687 C0.431,16.687 7.091,23.348 7.091,23.348 C7.091,23.348 0.348,32.596 0.348,32.596 C0.106,32.948 0.134,33.272 0.431,33.569 C0.431,33.569 0.447,33.586 0.447,33.586 C0.579,33.717 0.738,33.783 0.925,33.784 C1.112,33.783 1.283,33.728 1.436,33.619 C1.436,33.619 10.240,26.496 10.240,26.496 C10.240,26.496 17.312,33.568 17.312,33.568 C17.598,33.854 17.950,33.998 18.367,33.997 C18.785,33.998 19.137,33.855 19.423,33.569 C20.775,32.217 21.560,30.569 21.780,28.623 ZM14.147,16.687 C13.993,16.841 13.817,16.918 13.619,16.918 C13.421,16.918 13.245,16.841 13.092,16.687 C12.938,16.534 12.861,16.358 12.861,16.160 C12.861,15.962 12.938,15.786 13.092,15.632 C13.092,15.632 20.477,8.247 20.477,8.247 C20.631,8.093 20.807,8.015 21.005,8.016 C21.203,8.016 21.379,8.093 21.532,8.247 C21.686,8.400 21.763,8.576 21.763,8.774 C21.763,8.972 21.686,9.148 21.532,9.302 C21.532,9.302 14.147,16.687 14.147,16.687 Z"/>
</svg>