<svg 
 xmlns="http://www.w3.org/2000/svg"
 xmlns:xlink="http://www.w3.org/1999/xlink"
 width="22px" height="38px">
<path fill-rule="evenodd"  fill="rgb(255, 255, 255)"
 d="M19.179,-0.003 C19.179,-0.003 2.822,-0.003 2.822,-0.003 C1.257,-0.003 -0.007,1.237 -0.007,2.766 C-0.007,2.766 -0.007,35.237 -0.007,35.237 C-0.007,36.764 1.257,38.002 2.822,38.002 C2.822,38.002 19.179,38.002 19.179,38.002 C20.741,38.002 22.007,36.764 22.007,35.237 C22.007,35.237 22.007,2.766 22.007,2.766 C22.007,1.237 20.741,-0.003 19.179,-0.003 ZM6.964,1.678 C6.964,1.678 15.040,1.678 15.040,1.678 C15.243,1.678 15.408,1.976 15.408,2.344 C15.408,2.713 15.243,3.012 15.040,3.012 C15.040,3.012 6.964,3.012 6.964,3.012 C6.759,3.012 6.596,2.713 6.596,2.344 C6.596,1.976 6.759,1.678 6.964,1.678 ZM11.002,35.270 C10.006,35.270 9.196,34.478 9.196,33.503 C9.196,32.529 10.006,31.739 11.002,31.739 C11.995,31.739 12.804,32.529 12.804,33.503 C12.804,34.478 11.995,35.270 11.002,35.270 ZM19.887,29.219 C19.887,29.219 2.114,29.219 2.114,29.219 C2.114,29.219 2.114,4.669 2.114,4.669 C2.114,4.669 19.887,4.669 19.887,4.669 C19.887,4.669 19.887,29.219 19.887,29.219 Z"/>
</svg>