<svg 
 xmlns="http://www.w3.org/2000/svg"
 xmlns:xlink="http://www.w3.org/1999/xlink"
 width="30px" height="30px">
<path fill-rule="evenodd"  fill="rgb(255, 255, 255)"
 d="M14.539,-0.000 C14.848,-0.000 15.158,-0.000 15.467,-0.000 C15.512,0.008 15.557,0.022 15.602,0.024 C16.341,0.048 17.075,0.132 17.800,0.271 C19.523,0.601 21.141,1.212 22.647,2.113 C22.732,2.164 22.781,2.154 22.849,2.085 C23.356,1.572 23.870,1.066 24.376,0.553 C24.614,0.312 24.845,0.068 25.197,-0.000 C25.272,-0.000 25.347,-0.000 25.422,-0.000 C25.439,0.008 25.454,0.019 25.472,0.024 C25.998,0.168 26.233,0.475 26.233,1.019 C26.233,1.872 26.233,2.724 26.233,3.577 C26.233,3.763 26.234,3.764 26.420,3.764 C27.278,3.764 28.136,3.763 28.993,3.765 C29.095,3.766 29.202,3.767 29.299,3.794 C30.000,3.983 30.218,4.837 29.698,5.360 C29.111,5.952 28.521,6.542 27.927,7.128 C27.841,7.213 27.837,7.272 27.898,7.375 C29.141,9.469 29.827,11.737 29.964,14.165 C30.040,15.506 29.944,16.841 29.653,18.155 C28.963,21.270 27.450,23.918 25.092,26.065 C22.472,28.452 19.373,29.743 15.837,29.963 C14.784,30.028 13.733,29.971 12.687,29.808 C11.169,29.570 9.722,29.115 8.349,28.430 C6.034,27.274 4.134,25.633 2.664,23.505 C1.137,21.294 0.265,18.845 0.059,16.163 C0.042,15.931 0.020,15.699 -0.000,15.467 C-0.000,15.157 -0.000,14.848 -0.000,14.539 C0.008,14.488 0.022,14.439 0.024,14.388 C0.059,13.442 0.184,12.508 0.402,11.586 C1.059,8.807 2.405,6.409 4.418,4.388 C5.611,3.190 6.975,2.226 8.500,1.492 C10.182,0.683 11.952,0.200 13.814,0.060 C14.056,0.042 14.297,0.020 14.539,-0.000 ZM22.485,9.360 C24.082,11.583 24.686,14.016 24.202,16.677 C23.716,19.345 22.299,21.424 20.025,22.891 C16.402,25.227 11.624,24.745 8.513,21.751 C5.270,18.629 4.733,13.728 7.065,10.029 C8.236,8.173 9.858,6.850 11.939,6.154 C15.042,5.117 17.937,5.617 20.626,7.493 C20.630,7.412 20.637,7.349 20.637,7.285 C20.638,6.427 20.639,5.570 20.636,4.712 C20.635,4.434 20.731,4.201 20.926,4.005 C21.052,3.879 21.178,3.754 21.303,3.627 C21.331,3.599 21.353,3.566 21.379,3.534 C16.303,0.619 8.945,1.359 4.584,7.015 C0.287,12.589 1.171,20.521 6.544,25.041 C11.927,29.568 19.927,29.099 24.718,23.815 C29.207,18.864 28.704,12.344 26.437,8.602 C26.294,8.752 26.154,8.896 26.017,9.042 C25.810,9.264 25.558,9.364 25.253,9.362 C24.395,9.356 23.538,9.360 22.680,9.360 C22.626,9.360 22.573,9.360 22.485,9.360 ZM19.588,9.084 C17.038,6.995 12.670,6.720 9.691,9.701 C6.686,12.707 6.772,17.560 9.846,20.451 C12.941,23.361 17.752,23.152 20.568,20.017 C23.359,16.912 22.828,12.700 20.911,10.413 C20.877,10.444 20.842,10.474 20.810,10.506 C19.981,11.334 19.154,12.164 18.323,12.990 C18.247,13.065 18.235,13.120 18.288,13.216 C18.700,13.971 18.825,14.779 18.688,15.623 C18.364,17.618 16.470,18.993 14.464,18.700 C12.352,18.391 10.920,16.391 11.318,14.306 C11.793,11.820 14.527,10.509 16.761,11.700 C16.871,11.759 16.934,11.752 17.023,11.662 C17.841,10.836 18.664,10.016 19.486,9.194 C19.519,9.161 19.549,9.127 19.588,9.084 ZM24.378,3.207 C24.332,3.240 24.304,3.255 24.283,3.276 C23.706,3.852 23.129,4.427 22.557,5.007 C22.517,5.047 22.493,5.121 22.493,5.179 C22.487,5.596 22.493,6.013 22.487,6.429 C22.486,6.539 22.523,6.574 22.627,6.586 C23.040,6.634 23.375,6.968 23.414,7.378 C23.425,7.494 23.473,7.515 23.573,7.514 C23.976,7.510 24.379,7.517 24.781,7.508 C24.860,7.506 24.956,7.468 25.012,7.414 C25.573,6.863 26.128,6.305 26.683,5.748 C26.716,5.715 26.743,5.677 26.793,5.616 C26.286,5.616 25.818,5.618 25.350,5.616 C24.780,5.613 24.388,5.223 24.386,4.656 C24.385,4.229 24.386,3.803 24.385,3.377 C24.385,3.328 24.381,3.279 24.378,3.207 ZM16.798,14.521 C16.758,14.559 16.720,14.592 16.685,14.627 C16.343,14.968 16.006,15.314 15.659,15.650 C15.278,16.020 14.694,16.014 14.334,15.647 C13.971,15.277 13.983,14.704 14.362,14.323 C14.699,13.984 15.038,13.647 15.375,13.309 C15.410,13.275 15.441,13.238 15.479,13.197 C14.890,12.981 13.958,13.184 13.437,13.947 C12.930,14.691 13.031,15.705 13.680,16.339 C14.342,16.986 15.354,17.061 16.099,16.524 C16.830,15.995 17.014,15.057 16.798,14.521 Z"/>
</svg>