<svg 
 xmlns="http://www.w3.org/2000/svg"
 xmlns:xlink="http://www.w3.org/1999/xlink"
 width="30px" height="30px">
<path fill-rule="evenodd"  fill="rgb(255, 255, 255)"
 d="M15.000,0.009 C6.722,0.009 0.009,6.723 0.009,14.999 C0.009,23.278 6.722,29.990 15.000,29.990 C23.278,29.990 29.990,23.278 29.990,14.999 C29.990,6.723 23.853,0.009 15.000,0.009 ZM21.179,3.481 C21.439,3.357 22.490,3.908 23.379,4.842 C22.779,7.066 21.378,6.801 21.378,6.801 C21.378,6.801 20.350,6.778 20.486,5.908 C20.486,5.908 21.551,5.195 21.551,5.195 C21.551,5.195 21.103,4.045 21.179,3.481 ZM11.493,19.041 C11.427,19.375 11.025,20.177 10.760,20.709 C10.492,21.244 10.359,21.445 10.023,21.712 C9.691,21.983 9.491,22.447 9.491,22.447 C9.491,22.447 9.426,23.581 9.426,23.581 C9.426,23.581 9.556,24.516 9.755,24.853 C9.956,25.185 9.040,27.174 9.040,27.174 C8.461,27.058 8.138,26.386 7.937,25.854 C7.736,25.318 7.468,25.035 7.537,24.435 C7.604,23.833 7.017,23.517 6.820,23.183 C6.621,22.847 6.351,22.381 6.351,22.047 C6.351,21.713 5.618,21.245 5.618,21.245 C5.618,21.245 4.282,20.645 4.082,20.379 C3.882,20.111 3.680,18.974 3.613,18.508 C3.548,18.042 3.814,16.842 3.814,16.842 C3.814,16.842 4.350,16.437 4.013,16.106 C3.679,15.772 3.613,14.902 3.613,14.902 C3.613,14.902 3.012,14.237 3.012,14.237 C3.012,14.237 2.545,13.568 2.479,13.234 C2.413,12.901 2.479,12.699 2.545,12.365 C2.611,12.029 2.412,11.432 2.412,11.098 C4.905,4.979 9.089,3.552 9.089,3.552 C9.089,3.552 9.425,4.952 9.425,4.952 C9.425,4.952 8.691,5.153 8.291,5.021 C7.889,4.887 7.687,4.887 7.687,4.887 C7.687,4.887 7.154,5.619 7.154,5.619 C7.154,5.619 6.954,6.087 6.884,6.354 C6.820,6.621 7.017,7.018 7.017,7.018 C7.017,7.018 7.954,7.086 7.954,6.820 C7.954,6.552 7.820,6.419 7.820,6.419 C7.820,6.419 7.688,5.953 7.688,5.953 C7.688,5.953 8.292,5.619 9.890,5.751 C11.494,5.887 10.894,7.019 11.563,7.290 C12.232,7.555 11.026,8.490 10.761,9.024 C10.493,9.558 10.092,8.356 10.092,8.356 C10.092,8.356 10.493,7.891 9.825,7.753 C9.155,7.624 8.714,8.957 9.052,8.892 C9.385,8.827 9.757,9.251 9.691,9.584 C9.623,9.920 9.623,9.892 9.290,10.625 C8.956,11.360 8.231,11.903 8.231,11.903 C8.231,11.903 7.889,11.697 8.087,12.095 C8.291,12.497 8.021,13.429 8.021,13.699 C8.021,13.965 7.220,13.231 7.089,12.562 C6.953,11.897 6.169,12.477 5.902,12.545 C5.634,12.613 5.149,12.430 5.018,12.096 C4.883,11.764 3.679,12.764 3.344,12.963 C3.012,13.165 3.148,13.699 3.679,13.430 C4.212,13.165 4.680,13.366 4.547,13.902 C4.414,14.432 3.881,14.102 3.947,14.432 C4.013,14.766 4.547,15.101 4.680,15.570 C4.815,16.036 6.084,15.637 6.483,15.437 C6.883,15.234 8.020,15.035 8.152,15.570 C8.291,16.105 9.557,16.302 10.022,16.435 C10.492,16.570 11.426,16.635 11.960,17.170 C12.495,17.706 11.562,18.707 11.493,19.041 ZM14.497,3.414 C14.430,4.085 13.365,4.949 13.497,5.220 C13.632,5.488 13.497,6.630 12.561,5.627 C11.626,4.626 10.692,4.285 10.760,3.615 C10.774,3.481 11.726,3.272 11.741,3.038 C13.158,1.722 15.420,1.993 15.591,2.305 C15.188,2.968 14.565,2.746 14.497,3.414 ZM26.584,15.326 C26.584,15.326 27.099,16.083 27.831,16.036 C27.349,21.620 22.689,25.206 22.689,25.206 C21.977,24.493 22.334,23.874 22.334,23.874 C22.334,23.874 22.533,22.804 22.533,22.804 C22.533,22.804 22.646,21.001 22.646,21.001 C22.646,21.001 22.646,19.133 20.863,20.020 C18.950,20.509 19.747,20.509 17.813,20.645 C15.878,20.777 16.197,16.694 16.197,16.694 C16.197,10.584 20.883,15.195 20.883,15.195 C23.557,16.976 23.911,13.721 23.911,13.721 C23.911,13.721 25.873,13.011 25.873,13.011 C25.873,13.011 26.050,12.120 26.050,12.120 C26.050,12.120 25.766,10.874 25.766,10.874 C25.766,10.874 22.923,9.702 22.923,9.702 C22.923,9.702 22.648,10.625 23.379,11.764 C23.379,11.764 23.135,13.054 22.533,12.721 C22.533,12.721 20.885,11.892 20.885,11.892 C20.885,11.892 20.329,11.652 19.439,12.188 C18.548,12.721 17.036,12.162 17.036,12.162 C17.036,12.162 17.160,11.267 18.098,10.801 C18.098,10.801 18.863,10.295 18.863,10.295 C18.863,10.295 18.664,9.382 18.839,8.670 C19.017,7.958 19.328,8.582 20.039,8.046 C20.752,7.513 21.241,9.093 22.309,8.914 C23.379,8.735 22.845,8.558 23.559,8.202 C24.271,7.846 24.805,8.914 24.805,8.914 C24.805,8.914 26.227,9.093 26.227,9.093 C26.227,9.093 26.002,7.483 26.102,7.897 C27.003,9.449 28.325,13.583 27.835,14.320 C27.542,14.188 27.298,14.078 27.298,14.078 C27.298,14.078 25.516,14.078 25.516,14.078 C25.516,14.078 26.584,15.326 26.584,15.326 Z"/>
</svg>