<svg 
 xmlns="http://www.w3.org/2000/svg"
 xmlns:xlink="http://www.w3.org/1999/xlink"
 width="34px" height="30px">
<path fill-rule="evenodd"  fill="rgb(255, 255, 255)"
 d="M33.288,10.724 C32.814,10.236 32.242,9.992 31.571,9.992 C31.571,9.992 31.571,9.992 31.571,9.992 C31.571,9.992 31.571,2.499 31.571,2.499 C31.571,1.822 31.331,1.237 30.850,0.742 C30.370,0.248 29.800,0.001 29.143,0.001 C23.312,4.996 17.645,7.494 12.142,7.494 C12.142,7.494 3.036,7.494 3.036,7.494 C2.201,7.494 1.486,7.800 0.892,8.412 C0.297,9.023 -0.000,9.758 -0.000,10.617 C-0.000,10.617 -0.000,14.364 -0.000,14.364 C-0.000,15.222 0.297,15.957 0.891,16.569 C1.486,17.180 2.200,17.486 3.035,17.486 C3.035,17.486 5.350,17.486 5.350,17.486 C5.135,18.189 4.996,18.908 4.933,19.642 C4.870,20.378 4.847,21.018 4.866,21.565 C4.885,22.111 4.980,22.768 5.151,23.536 C5.322,24.303 5.467,24.882 5.587,25.272 C5.707,25.663 5.910,26.277 6.194,27.116 C6.479,27.955 6.665,28.524 6.754,28.824 C7.336,29.370 8.170,29.731 9.258,29.907 C10.346,30.082 11.412,30.007 12.455,29.682 C13.499,29.357 14.204,28.817 14.571,28.062 C14.090,27.672 13.701,27.344 13.404,27.077 C13.107,26.810 12.803,26.485 12.493,26.102 C12.183,25.718 11.972,25.360 11.858,25.028 C11.744,24.696 11.706,24.319 11.744,23.896 C11.782,23.473 11.928,23.047 12.181,22.618 C11.700,22.111 11.447,21.509 11.422,20.813 C11.396,20.117 11.592,19.463 12.010,18.852 C12.427,18.240 13.003,17.811 13.736,17.564 C18.733,17.993 23.868,20.465 29.143,24.979 C29.800,24.979 30.370,24.732 30.850,24.238 C31.331,23.744 31.571,23.158 31.571,22.481 C31.571,22.481 31.571,14.988 31.571,14.988 C32.242,14.988 32.814,14.744 33.288,14.256 C33.762,13.768 34.000,13.180 34.000,12.490 C34.000,11.801 33.762,11.212 33.288,10.724 ZM29.143,21.779 C24.197,17.889 19.340,15.671 14.571,15.124 C14.571,15.124 14.571,9.856 14.571,9.856 C19.302,9.322 24.159,7.091 29.143,3.162 C29.143,3.162 29.143,21.779 29.143,21.779 Z"/>
</svg>