<svg 
 xmlns="http://www.w3.org/2000/svg"
 xmlns:xlink="http://www.w3.org/1999/xlink"
 width="30px" height="32px">
<path fill-rule="evenodd"  fill="rgb(29, 115, 233)"
 d="M29.045,17.885 C29.683,16.936 30.002,15.891 30.002,14.750 C30.002,13.429 29.507,12.282 28.518,11.307 C27.528,10.332 26.356,9.845 25.002,9.845 C25.002,9.845 21.564,9.845 21.564,9.845 C22.189,8.576 22.501,7.345 22.501,6.153 C22.501,4.652 22.273,3.460 21.818,2.575 C21.362,1.690 20.698,1.040 19.825,0.623 C18.952,0.206 17.969,-0.002 16.875,-0.002 C16.211,-0.002 15.625,0.235 15.117,0.710 C14.557,1.248 14.153,1.941 13.906,2.787 C13.659,3.633 13.460,4.444 13.310,5.220 C13.161,5.996 12.929,6.544 12.617,6.864 C11.979,7.544 11.282,8.365 10.527,9.326 C9.211,11.005 8.319,11.999 7.850,12.307 C7.850,12.307 2.498,12.307 2.498,12.307 C1.808,12.307 1.219,12.548 0.730,13.028 C0.242,13.509 -0.002,14.089 -0.002,14.769 C-0.002,14.769 -0.002,27.078 -0.002,27.078 C-0.002,27.757 0.242,28.337 0.730,28.818 C1.219,29.299 1.808,29.539 2.498,29.539 C2.498,29.539 8.124,29.539 8.124,29.539 C8.410,29.539 9.309,29.796 10.819,30.309 C12.421,30.860 13.831,31.280 15.048,31.569 C16.266,31.857 17.500,32.001 18.751,32.001 C18.751,32.001 20.566,32.001 20.566,32.001 C20.566,32.001 21.270,32.001 21.270,32.001 C23.106,32.001 24.584,31.485 25.704,30.453 C26.824,29.420 27.378,28.013 27.365,26.231 C28.146,25.244 28.537,24.103 28.537,22.808 C28.537,22.526 28.517,22.250 28.478,21.981 C28.973,21.122 29.221,20.199 29.221,19.212 C29.221,18.750 29.162,18.308 29.045,17.885 ZM4.627,26.712 C4.380,26.956 4.087,27.078 3.748,27.078 C3.410,27.078 3.117,26.956 2.869,26.712 C2.622,26.469 2.498,26.180 2.498,25.847 C2.498,25.513 2.622,25.225 2.869,24.981 C3.117,24.738 3.410,24.616 3.748,24.616 C4.087,24.616 4.380,24.738 4.627,24.981 C4.875,25.225 4.999,25.513 4.999,25.847 C4.999,26.180 4.875,26.469 4.627,26.712 ZM27.082,16.328 C26.802,16.917 26.454,17.219 26.037,17.231 C26.232,17.449 26.395,17.754 26.525,18.145 C26.656,18.536 26.720,18.892 26.720,19.212 C26.720,20.097 26.376,20.860 25.685,21.501 C25.920,21.911 26.037,22.353 26.037,22.827 C26.037,23.302 25.923,23.773 25.695,24.241 C25.468,24.709 25.158,25.045 24.768,25.250 C24.833,25.635 24.865,25.994 24.865,26.327 C24.865,28.468 23.615,29.539 21.114,29.539 C21.114,29.539 18.751,29.539 18.751,29.539 C17.045,29.539 14.818,29.071 12.070,28.135 C12.005,28.109 11.816,28.042 11.504,27.933 C11.191,27.824 10.960,27.744 10.810,27.693 C10.660,27.641 10.432,27.568 10.126,27.472 C9.820,27.375 9.573,27.305 9.384,27.260 C9.195,27.215 8.980,27.174 8.739,27.135 C8.499,27.097 8.293,27.078 8.124,27.078 C8.124,27.078 7.499,27.078 7.499,27.078 C7.499,27.078 7.499,14.769 7.499,14.769 C7.499,14.769 8.124,14.769 8.124,14.769 C8.333,14.769 8.564,14.712 8.818,14.596 C9.071,14.481 9.332,14.308 9.599,14.077 C9.866,13.846 10.117,13.619 10.351,13.394 C10.586,13.170 10.846,12.888 11.133,12.548 C11.419,12.208 11.644,11.936 11.806,11.731 C11.969,11.526 12.174,11.263 12.422,10.942 C12.669,10.622 12.819,10.429 12.871,10.365 C13.587,9.493 14.089,8.910 14.375,8.615 C14.909,8.064 15.296,7.362 15.537,6.509 C15.778,5.656 15.977,4.852 16.133,4.096 C16.289,3.339 16.537,2.794 16.875,2.461 C18.126,2.461 18.959,2.762 19.376,3.364 C19.792,3.967 20.001,4.897 20.001,6.153 C20.001,6.910 19.688,7.939 19.063,9.240 C18.438,10.541 18.126,11.564 18.126,12.307 C18.126,12.307 25.001,12.307 25.001,12.307 C25.653,12.307 26.232,12.554 26.740,13.048 C27.248,13.541 27.502,14.115 27.502,14.769 C27.502,15.218 27.362,15.737 27.082,16.328 Z"/>
</svg>