<svg 
 xmlns="http://www.w3.org/2000/svg"
 xmlns:xlink="http://www.w3.org/1999/xlink"
 width="24px" height="36px">
<path fill-rule="evenodd"  fill="rgb(29, 115, 233)"
 d="M12.000,-0.000 C5.383,-0.000 -0.000,4.939 -0.000,11.009 C-0.000,15.242 1.698,17.645 3.340,19.970 C4.710,21.908 6.126,23.911 6.211,26.622 C6.232,27.291 6.727,27.840 7.378,27.976 C6.772,28.156 6.331,28.700 6.331,29.344 C6.331,29.912 6.674,30.401 7.170,30.633 C6.674,30.864 6.331,31.353 6.331,31.921 C6.331,32.711 6.994,33.352 7.813,33.352 C7.813,33.352 8.719,33.352 8.719,33.352 C8.999,34.857 10.361,36.000 12.000,36.000 C13.639,36.000 15.001,34.857 15.281,33.352 C15.281,33.352 16.187,33.352 16.187,33.352 C17.005,33.352 17.669,32.711 17.669,31.921 C17.669,31.353 17.326,30.864 16.830,30.633 C17.326,30.401 17.669,29.912 17.669,29.344 C17.669,28.703 17.232,28.160 16.630,27.978 C17.281,27.842 17.775,27.293 17.796,26.624 C17.881,23.915 19.295,21.911 20.664,19.972 C22.304,17.648 24.000,15.244 24.000,11.009 C24.000,4.939 18.617,-0.000 12.000,-0.000 ZM18.213,18.361 C16.954,20.145 15.429,22.306 14.967,25.149 C14.967,25.149 13.439,25.148 13.439,25.148 C13.439,25.148 15.621,13.153 15.621,13.153 C15.622,13.146 15.624,13.140 15.625,13.133 C15.741,12.398 15.520,11.653 15.018,11.089 C14.533,10.544 13.825,10.218 13.125,10.218 C12.731,10.218 12.345,10.321 11.999,10.513 C11.653,10.321 11.267,10.218 10.873,10.218 C10.179,10.218 9.497,10.536 9.002,11.092 C8.490,11.665 8.261,12.409 8.373,13.131 C8.374,13.138 8.375,13.146 8.376,13.153 C8.376,13.153 10.558,25.147 10.558,25.147 C10.558,25.147 9.040,25.147 9.040,25.147 C8.577,22.302 7.050,20.141 5.788,18.356 C4.273,16.211 2.964,14.358 2.964,11.009 C2.964,6.517 7.018,2.862 12.000,2.862 C16.982,2.862 21.036,6.517 21.036,11.009 C21.036,14.362 19.728,16.214 18.213,18.361 ZM11.999,22.973 C11.999,22.973 10.160,12.864 10.160,12.864 C10.116,12.557 10.293,12.320 10.372,12.231 C10.516,12.069 10.713,11.965 10.873,11.965 C11.074,11.965 11.228,12.110 11.301,12.196 C11.473,12.397 11.729,12.513 11.999,12.513 C12.269,12.513 12.524,12.397 12.696,12.196 C12.770,12.110 12.924,11.965 13.125,11.965 C13.302,11.965 13.502,12.065 13.646,12.227 C13.738,12.331 13.884,12.550 13.838,12.862 C13.838,12.862 11.999,22.973 11.999,22.973 Z"/>
</svg>