<svg 
 xmlns="http://www.w3.org/2000/svg"
 xmlns:xlink="http://www.w3.org/1999/xlink"
 width="30px" height="30px">
<path fill-rule="evenodd"  fill="rgb(255, 255, 255)"
 d="M15.000,30.000 C6.729,30.000 -0.000,23.271 -0.000,15.000 C-0.000,6.729 6.729,-0.000 15.000,-0.000 C23.271,-0.000 30.000,6.729 30.000,15.000 C30.000,23.271 23.271,30.000 15.000,30.000 ZM25.626,9.777 C25.626,9.777 24.267,10.561 24.267,10.561 C24.143,10.633 24.007,10.667 23.873,10.667 C23.600,10.667 23.335,10.526 23.189,10.272 C22.971,9.895 23.100,9.412 23.477,9.194 C23.477,9.194 24.834,8.410 24.834,8.410 C23.898,7.017 22.673,5.833 21.246,4.944 C21.246,4.944 20.606,6.060 20.606,6.060 C20.532,6.189 20.393,6.270 20.243,6.270 C20.170,6.270 20.100,6.251 20.036,6.215 C19.836,6.100 19.767,5.844 19.882,5.644 C19.882,5.644 20.522,4.527 20.522,4.527 C19.092,3.770 17.489,3.297 15.789,3.185 C15.789,3.185 15.789,4.755 15.789,4.755 C15.789,5.191 15.436,5.545 15.000,5.545 C14.564,5.545 14.210,5.191 14.210,4.755 C14.210,4.755 14.210,3.185 14.210,3.185 C12.485,3.299 10.860,3.784 9.413,4.561 C9.413,4.561 10.061,5.674 10.061,5.674 C10.117,5.771 10.132,5.883 10.103,5.991 C10.075,6.099 10.006,6.189 9.909,6.246 C9.781,6.321 9.619,6.320 9.491,6.247 C9.427,6.210 9.376,6.159 9.338,6.094 C9.338,6.094 8.692,4.982 8.692,4.982 C7.291,5.867 6.088,7.037 5.165,8.410 C5.165,8.410 6.522,9.194 6.522,9.194 C6.900,9.412 7.029,9.895 6.811,10.272 C6.665,10.526 6.399,10.667 6.126,10.667 C5.993,10.667 5.857,10.633 5.733,10.561 C5.733,10.561 4.374,9.777 4.374,9.777 C3.649,11.246 3.220,12.886 3.164,14.618 C3.164,14.618 4.455,14.614 4.455,14.614 C4.685,14.614 4.872,14.801 4.873,15.031 C4.873,15.143 4.830,15.248 4.751,15.327 C4.673,15.406 4.568,15.450 4.457,15.450 C4.457,15.450 3.167,15.454 3.167,15.454 C3.232,17.160 3.659,18.775 4.374,20.223 C4.374,20.223 5.733,19.439 5.733,19.439 C6.110,19.221 6.593,19.350 6.811,19.728 C7.029,20.105 6.900,20.588 6.522,20.806 C6.522,20.806 5.165,21.589 5.165,21.589 C6.102,22.983 7.327,24.167 8.753,25.056 C8.753,25.056 9.393,23.940 9.393,23.940 C9.467,23.810 9.607,23.730 9.756,23.730 C9.829,23.730 9.899,23.749 9.963,23.786 C10.060,23.841 10.129,23.931 10.159,24.039 C10.188,24.146 10.173,24.259 10.118,24.356 C10.118,24.356 9.478,25.473 9.478,25.473 C10.908,26.230 12.511,26.703 14.210,26.815 C14.210,26.815 14.210,25.245 14.210,25.245 C14.210,24.809 14.564,24.455 15.000,24.455 C15.436,24.455 15.789,24.809 15.789,25.245 C15.789,25.245 15.789,26.815 15.789,26.815 C17.515,26.701 19.140,26.216 20.586,25.439 C20.586,25.439 19.939,24.326 19.939,24.326 C19.883,24.229 19.868,24.117 19.896,24.009 C19.925,23.901 19.993,23.811 20.090,23.755 C20.155,23.717 20.225,23.698 20.299,23.698 C20.448,23.698 20.587,23.777 20.661,23.906 C20.661,23.906 21.308,25.018 21.308,25.018 C22.708,24.133 23.911,22.963 24.835,21.589 C24.835,21.589 23.478,20.806 23.478,20.806 C23.100,20.588 22.971,20.105 23.189,19.728 C23.407,19.350 23.889,19.221 24.267,19.439 C24.267,19.439 25.626,20.223 25.626,20.223 C26.351,18.754 26.780,17.114 26.835,15.382 C26.835,15.382 25.546,15.386 25.546,15.386 C25.546,15.386 25.544,15.386 25.544,15.386 C25.472,15.386 25.400,15.367 25.337,15.331 C25.208,15.257 25.127,15.118 25.127,14.969 C25.126,14.857 25.170,14.752 25.248,14.673 C25.327,14.594 25.432,14.550 25.543,14.550 C25.543,14.550 26.832,14.546 26.832,14.546 C26.768,12.840 26.341,11.225 25.626,9.777 ZM21.796,12.453 C21.796,12.453 16.630,15.320 16.630,15.320 C16.481,16.084 15.808,16.662 15.000,16.662 C14.191,16.662 13.519,16.084 13.369,15.320 C13.369,15.320 8.203,12.453 8.203,12.453 C7.724,12.187 7.551,11.584 7.817,11.105 C8.083,10.626 8.686,10.453 9.165,10.719 C9.165,10.719 14.229,13.528 14.229,13.528 C14.459,13.408 14.721,13.338 15.000,13.338 C15.278,13.338 15.540,13.408 15.771,13.528 C15.771,13.528 20.835,10.719 20.835,10.719 C21.313,10.453 21.917,10.626 22.183,11.105 C22.448,11.584 22.275,12.187 21.796,12.453 Z"/>
</svg>